<svg width="145" height="35" viewBox="0 0 145 35" fill="none" xmlns="http://www.w3.org/2000/svg">
<path d="M7.94813 14.9043C7.94813 11.4414 9.23133 9.5957 11.4462 9.5957C13.6259 9.5957 14.7509 11.3359 14.7509 13.6211H21.7294V12.584C21.7294 7.11719 17.4227 3.61914 11.3759 3.61914C4.2743 3.61914 0.389534 8.04883 0.389534 14.9219V17.084C0.389534 23.9395 4.2743 28.4043 11.3759 28.4043C17.4227 28.4043 21.7294 24.8887 21.7294 19.457V18.3848H14.7509C14.7509 20.6699 13.6259 22.4277 11.4462 22.4277C9.23133 22.4277 7.94813 20.582 7.94813 17.1367V14.9043ZM29.5305 28.2637C32.3254 28.2637 33.7316 26.9629 34.1887 25.7852H34.5402V28H41.1848V15.625C41.1848 10.5449 37.3176 8.78711 32.4836 8.78711C25.6809 8.78711 23.9758 12.4609 23.9055 15.4141H30.55C30.55 14.4648 31.2707 13.7617 32.4133 13.7617C33.4855 13.7617 34.1887 14.3418 34.1887 15.3438V16.7324H30.1281C25.6809 16.7324 23.2375 18.9824 23.2375 22.5156C23.2375 26.1895 25.8215 28.2637 29.5305 28.2637ZM32.132 23.5527C31.1477 23.5527 30.1984 22.9551 30.1984 21.8828C30.1984 20.8633 31.0773 20.2129 32.3605 20.2129H34.1887V21.9004C34.1887 22.9199 33.1516 23.5527 32.132 23.5527ZM44.0464 28H51.4292V18.6309C51.4292 16.0996 52.5366 14.6406 55.2085 14.6406C56.1929 14.6406 57.1597 14.7461 57.5991 14.9395V8.99805C57.2476 8.85742 56.6323 8.78711 55.5952 8.78711C53.187 8.78711 51.7808 10.7734 51.5347 12.0918H51.1831V9.05078H44.0464V28Z" fill="#E9E9E9"/>
<path d="M59.3709 28H66.7538V18.6309C66.7538 16.0996 67.8612 14.6406 70.5331 14.6406C71.5174 14.6406 72.4842 14.7461 72.9237 14.9395V8.99805C72.5721 8.85742 71.9569 8.78711 70.9198 8.78711C68.5116 8.78711 67.1053 10.7734 66.8592 12.0918H66.5077V9.05078H59.3709V28ZM74.7834 4.16406C74.7834 6.18555 76.4357 7.39844 78.4572 7.39844C80.4611 7.39844 82.1134 6.18555 82.1134 4.16406C82.1134 2.16016 80.4611 0.947266 78.4572 0.947266C76.4357 0.947266 74.7834 2.16016 74.7834 4.16406ZM74.8888 28H82.008V9.05078H74.8888V28ZM90.7231 28.2637C93.5181 28.2637 94.9243 26.9629 95.3813 25.7852H95.7329V28H102.377V15.625C102.377 10.5449 98.5102 8.78711 93.6763 8.78711C86.8735 8.78711 85.1684 12.4609 85.0981 15.4141H91.7427C91.7427 14.4648 92.4634 13.7617 93.6059 13.7617C94.6782 13.7617 95.3813 14.3418 95.3813 15.3438V16.7324H91.3208C86.8735 16.7324 84.4302 18.9824 84.4302 22.5156C84.4302 26.1895 87.0141 28.2637 90.7231 28.2637ZM93.3247 23.5527C92.3403 23.5527 91.3911 22.9551 91.3911 21.8828C91.3911 20.8633 92.27 20.2129 93.5532 20.2129H95.3813V21.9004C95.3813 22.9199 94.3442 23.5527 93.3247 23.5527ZM114.221 30.1621C112.991 30.1621 111.901 29.8457 111.638 28.8438H104.993C105.011 32.0078 107.665 34.9258 114.063 34.9258C118.37 34.9258 123.995 33.6074 123.995 27.9473V9.05078H116.876V12.0566H116.524C115.891 10.123 113.975 8.89258 111.286 8.89258C107.173 8.89258 104.606 11.9512 104.606 17.9805V18.543C104.606 24.5723 107.173 27.6309 111.286 27.6309C114.046 27.6309 115.891 26.3652 116.524 24.6602H116.876V27.209C116.876 29.125 116.05 30.1621 114.221 30.1621ZM114.432 14.2715C115.856 14.2715 116.876 15.4668 116.876 18.0156V19.0176C116.876 21.5664 115.856 22.7793 114.432 22.7793C113.009 22.7793 112.007 21.5664 112.007 19.0176V18.0156C112.007 15.4844 113.009 14.2715 114.432 14.2715ZM135.821 28.3691C142.237 28.3691 144.663 24.3262 144.698 21.4258H138.37C138.353 22.6211 137.193 23.3066 135.786 23.3066C134.485 23.3066 133.167 22.4453 133.167 20.7051V19.8965H144.751V17.9102C144.751 12.127 141.025 8.68164 135.558 8.68164C130.566 8.68164 126.259 11.5293 126.259 17.9102V19.0703C126.259 25.4688 130.267 28.3691 135.821 28.3691ZM133.167 16.2051C133.167 14.623 134.187 13.5508 135.628 13.5508C137.069 13.5508 137.984 14.623 137.984 16.2051H133.167Z" fill="#FFC250"/>
</svg>
