<svg width="42" height="40" viewBox="0 0 42 40" fill="none" xmlns="http://www.w3.org/2000/svg">
<path d="M18.6875 15.2812H6.73438L7.73255 11.9541C8.05373 10.8834 8.71153 9.94482 9.60833 9.27758C10.5051 8.61033 11.5931 8.24998 12.7109 8.25C13.8287 8.24998 14.9167 8.61033 15.8135 9.27758C16.7103 9.94482 17.3681 10.8834 17.6893 11.9541L18.6875 15.2812Z" fill="#A3612D"/>
<path d="M14.4688 13.1719H10.9531C10.7666 13.1719 10.5878 13.0978 10.4559 12.9659C10.3241 12.8341 10.25 12.6552 10.25 12.4688C10.25 12.2823 10.3241 12.1034 10.4559 11.9716C10.5878 11.8397 10.7666 11.7656 10.9531 11.7656H14.4688C14.6552 11.7656 14.8341 11.8397 14.9659 11.9716C15.0978 12.1034 15.1719 12.2823 15.1719 12.4688C15.1719 12.6552 15.0978 12.8341 14.9659 12.9659C14.8341 13.0978 14.6552 13.1719 14.4688 13.1719Z" fill="#7A4922"/>
<path d="M13.0625 39.1875C14.2275 39.1875 15.1719 38.2431 15.1719 37.0781C15.1719 35.9131 14.2275 34.9688 13.0625 34.9688C11.8975 34.9688 10.9531 35.9131 10.9531 37.0781C10.9531 38.2431 11.8975 39.1875 13.0625 39.1875Z" fill="#E7A52E"/>
<path d="M32.0469 39.1875C33.2119 39.1875 34.1562 38.2431 34.1562 37.0781C34.1562 35.9131 33.2119 34.9688 32.0469 34.9688C30.8819 34.9688 29.9375 35.9131 29.9375 37.0781C29.9375 38.2431 30.8819 39.1875 32.0469 39.1875Z" fill="#E7A52E"/>
<path d="M34.8594 6.84375H26.4219L28.5312 3.32812H36.9688L34.8594 6.84375Z" fill="#EAE9E4"/>
<path d="M35.5818 36.375H10.2307C9.45947 36.375 8.71482 36.0933 8.13667 35.583C7.55853 35.0726 7.18668 34.3686 7.09104 33.6034L5.32812 19.5H40.4844L38.7215 33.6034C38.6258 34.3686 38.254 35.0726 37.6758 35.583C37.0977 36.0933 36.353 36.375 35.5818 36.375Z" fill="#E7A52E"/>
<path d="M3.92188 15.2812H41.8906V19.5H3.92188V15.2812Z" fill="#FFC250"/>
<path d="M24.3125 23.7188C24.3125 22.9421 23.6829 22.3125 22.9062 22.3125C22.1296 22.3125 21.5 22.9421 21.5 23.7188V32.1562C21.5 32.9329 22.1296 33.5625 22.9062 33.5625C23.6829 33.5625 24.3125 32.9329 24.3125 32.1562V23.7188Z" fill="#FFC250"/>
<path d="M18.6875 23.7188C18.6875 22.9421 18.0579 22.3125 17.2812 22.3125C16.5046 22.3125 15.875 22.9421 15.875 23.7188V32.1562C15.875 32.9329 16.5046 33.5625 17.2812 33.5625C18.0579 33.5625 18.6875 32.9329 18.6875 32.1562V23.7188Z" fill="#FFC250"/>
<path d="M29.9375 23.7188C29.9375 22.9421 29.3079 22.3125 28.5312 22.3125C27.7546 22.3125 27.125 22.9421 27.125 23.7188V32.1562C27.125 32.9329 27.7546 33.5625 28.5312 33.5625C29.3079 33.5625 29.9375 32.9329 29.9375 32.1562V23.7188Z" fill="#FFC250"/>
<path d="M35.5625 23.7188C35.5625 22.9421 34.9329 22.3125 34.1562 22.3125C33.3796 22.3125 32.75 22.9421 32.75 23.7188V32.1562C32.75 32.9329 33.3796 33.5625 34.1562 33.5625C34.9329 33.5625 35.5625 32.9329 35.5625 32.1562V23.7188Z" fill="#FFC250"/>
<path d="M13.0625 23.7188C13.0625 22.9421 12.4329 22.3125 11.6562 22.3125C10.8796 22.3125 10.25 22.9421 10.25 23.7188V32.1562C10.25 32.9329 10.8796 33.5625 11.6562 33.5625C12.4329 33.5625 13.0625 32.9329 13.0625 32.1562V23.7188Z" fill="#FFC250"/>
<path d="M26.4219 6.84375H34.8594V15.2812H26.4219V6.84375Z" fill="#DCDBD6"/>
<path d="M34.8594 6.84375L36.9688 3.32812L39.0781 6.84375V15.2812H34.8594V6.84375Z" fill="#CDCCC8"/>
<path d="M28.5312 0.515625H36.9688V3.32812H28.5312V0.515625Z" fill="#DCDBD6"/>
<path d="M26.4219 15.2812H17.9844V10.4343C17.9844 9.74182 18.1208 9.05607 18.3858 8.41626C18.6508 7.77644 19.0393 7.1951 19.529 6.70541L20.0938 6.14062V4.73438H24.3125V6.14062L24.8773 6.70541C25.367 7.1951 25.7554 7.77644 26.0205 8.41626C26.2855 9.05607 26.4219 9.74182 26.4219 10.4343V15.2812Z" fill="#FAA6B2"/>
<path d="M26.421 10.3594H23.6094C23.4229 10.3594 23.2441 10.2853 23.1122 10.1534C22.9803 10.0216 22.9062 9.84273 22.9062 9.65625C22.9062 9.46977 22.9803 9.29093 23.1122 9.15907C23.2441 9.0272 23.4229 8.95312 23.6094 8.95312H26.2092C26.3433 9.41009 26.4145 9.88318 26.421 10.3594Z" fill="#EC9DA8"/>
<path d="M26.4219 11.7656V13.1719H23.6094C23.4229 13.1719 23.2441 13.0978 23.1122 12.9659C22.9803 12.8341 22.9062 12.6552 22.9062 12.4688C22.9062 12.2823 22.9803 12.1034 23.1122 11.9716C23.2441 11.8397 23.4229 11.7656 23.6094 11.7656H26.4219Z" fill="#EC9DA8"/>
<path d="M19.3906 1.92188H25.0156V4.73438H19.3906V1.92188Z" fill="#DCDBD6"/>
<path d="M22.6287 17.3168C22.3165 17.3168 22.0113 17.2244 21.7516 17.0513L6.76962 7.06356C5.50566 6.22086 5.94977 4.26301 7.45367 4.04812C7.8614 3.9899 8.27619 4.08579 8.61699 4.31706L23.5165 14.4272C24.8056 15.3019 24.1865 17.3168 22.6287 17.3168Z" fill="#E7A52E"/>
<path d="M34.8594 9.65625L26.4219 15.2812H34.8594V9.65625Z" fill="#92D1F7"/>
<path d="M34.8594 9.65625H39.0781V15.2812H34.8594V9.65625Z" fill="#5EBEF7"/>
<path d="M7.4375 23.7188H2.51562C2.32914 23.7188 2.1503 23.6447 2.01844 23.5128C1.88658 23.3809 1.8125 23.2021 1.8125 23.0156C1.8125 22.8291 1.88658 22.6503 2.01844 22.5184C2.1503 22.3866 2.32914 22.3125 2.51562 22.3125H7.4375C7.62398 22.3125 7.80282 22.3866 7.93468 22.5184C8.06655 22.6503 8.14062 22.8291 8.14062 23.0156C8.14062 23.2021 8.06655 23.3809 7.93468 23.5128C7.80282 23.6447 7.62398 23.7188 7.4375 23.7188Z" fill="#EE9D0D"/>
<path d="M7.4375 27.2344H4.625C4.43852 27.2344 4.25968 27.1603 4.12782 27.0284C3.99595 26.8966 3.92188 26.7177 3.92188 26.5312C3.92188 26.3448 3.99595 26.1659 4.12782 26.0341C4.25968 25.9022 4.43852 25.8281 4.625 25.8281H7.4375C7.62398 25.8281 7.80282 25.9022 7.93468 26.0341C8.06655 26.1659 8.14062 26.3448 8.14062 26.5312C8.14062 26.7177 8.06655 26.8966 7.93468 27.0284C7.80282 27.1603 7.62398 27.2344 7.4375 27.2344Z" fill="#EE9D0D"/>
<path d="M7.4375 30.0469H1.8125C1.62602 30.0469 1.44718 29.9728 1.31532 29.8409C1.18345 29.7091 1.10938 29.5302 1.10938 29.3438C1.10938 29.1573 1.18345 28.9784 1.31532 28.8466C1.44718 28.7147 1.62602 28.6406 1.8125 28.6406H7.4375C7.62398 28.6406 7.80282 28.7147 7.93468 28.8466C8.06655 28.9784 8.14062 29.1573 8.14062 29.3438C8.14062 29.5302 8.06655 29.7091 7.93468 29.8409C7.80282 29.9728 7.62398 30.0469 7.4375 30.0469Z" fill="#EE9D0D"/>
<path d="M8.14062 32.8594H4.625C4.43852 32.8594 4.25968 32.7853 4.12782 32.6534C3.99595 32.5216 3.92188 32.3427 3.92188 32.1562C3.92188 31.9698 3.99595 31.7909 4.12782 31.6591C4.25968 31.5272 4.43852 31.4531 4.625 31.4531H8.14062C8.32711 31.4531 8.50595 31.5272 8.63781 31.6591C8.76967 31.7909 8.84375 31.9698 8.84375 32.1562C8.84375 32.3427 8.76967 32.5216 8.63781 32.6534C8.50595 32.7853 8.32711 32.8594 8.14062 32.8594Z" fill="#EE9D0D"/>
<path d="M1.8125 27.2344H1.10938C0.922895 27.2344 0.744052 27.1603 0.612191 27.0284C0.480329 26.8966 0.40625 26.7177 0.40625 26.5312C0.40625 26.3448 0.480329 26.1659 0.612191 26.0341C0.744052 25.9022 0.922895 25.8281 1.10938 25.8281H1.8125C1.99898 25.8281 2.17782 25.9022 2.30968 26.0341C2.44155 26.1659 2.51562 26.3448 2.51562 26.5312C2.51562 26.7177 2.44155 26.8966 2.30968 27.0284C2.17782 27.1603 1.99898 27.2344 1.8125 27.2344Z" fill="#EE9D0D"/>
<path d="M13.0625 39.8906C12.5062 39.8906 11.9625 39.7257 11.5 39.4166C11.0374 39.1076 10.677 38.6683 10.4641 38.1544C10.2512 37.6405 10.1955 37.075 10.304 36.5294C10.4126 35.9839 10.6804 35.4827 11.0738 35.0894C11.4671 34.6961 11.9682 34.4282 12.5138 34.3197C13.0594 34.2111 13.6249 34.2668 14.1388 34.4797C14.6527 34.6926 15.092 35.0531 15.401 35.5156C15.7101 35.9781 15.875 36.5219 15.875 37.0781C15.8742 37.8238 15.5776 38.5387 15.0503 39.0659C14.5231 39.5932 13.8082 39.8898 13.0625 39.8906ZM13.0625 35.6719C12.7844 35.6719 12.5125 35.7544 12.2812 35.9089C12.05 36.0634 11.8697 36.283 11.7633 36.54C11.6569 36.7969 11.629 37.0797 11.6833 37.3525C11.7375 37.6253 11.8715 37.8758 12.0681 38.0725C12.2648 38.2692 12.5154 38.4031 12.7882 38.4574C13.0609 38.5116 13.3437 38.4838 13.6007 38.3773C13.8576 38.2709 14.0772 38.0907 14.2318 37.8594C14.3863 37.6281 14.4688 37.3563 14.4688 37.0781C14.4683 36.7053 14.32 36.3479 14.0564 36.0842C13.7928 35.8206 13.4353 35.6723 13.0625 35.6719Z" fill="#FFC250"/>
<path d="M32.0469 39.8906C31.4906 39.8906 30.9468 39.7257 30.4843 39.4166C30.0218 39.1076 29.6613 38.6683 29.4485 38.1544C29.2356 37.6405 29.1799 37.075 29.2884 36.5294C29.3969 35.9839 29.6648 35.4827 30.0581 35.0894C30.4515 34.6961 30.9526 34.4282 31.4982 34.3197C32.0438 34.2111 32.6093 34.2668 33.1232 34.4797C33.6371 34.6926 34.0763 35.0531 34.3854 35.5156C34.6944 35.9781 34.8594 36.5219 34.8594 37.0781C34.8585 37.8238 34.562 38.5387 34.0347 39.0659C33.5074 39.5932 32.7925 39.8898 32.0469 39.8906ZM32.0469 35.6719C31.7687 35.6719 31.4969 35.7544 31.2656 35.9089C31.0343 36.0634 30.8541 36.283 30.7477 36.54C30.6412 36.7969 30.6134 37.0797 30.6676 37.3525C30.7219 37.6253 30.8558 37.8758 31.0525 38.0725C31.2492 38.2692 31.4997 38.4031 31.7725 38.4574C32.0453 38.5116 32.3281 38.4838 32.585 38.3773C32.842 38.2709 33.0616 38.0907 33.2161 37.8594C33.3707 37.6281 33.4531 37.3563 33.4531 37.0781C33.4527 36.7053 33.3044 36.3479 33.0408 36.0842C32.7771 35.8206 32.4197 35.6723 32.0469 35.6719Z" fill="#FFC250"/>
<path d="M20.0938 4.73438H24.3125V5.4375H20.0938V4.73438Z" fill="#EC9DA8"/>
</svg>
