<svg width="45" height="47" viewBox="0 0 45 47" fill="none" xmlns="http://www.w3.org/2000/svg">
<g filter="url(#filter0_d)">
<path d="M7.90234 36.2109H36.7305C37.0102 36.2109 37.2785 36.3221 37.4762 36.5198C37.674 36.7176 37.7852 36.9859 37.7852 37.2656C37.7852 37.5453 37.674 37.8136 37.4762 38.0114C37.2785 38.2092 37.0102 38.3203 36.7305 38.3203H7.90234C7.62262 38.3203 7.35436 38.2092 7.15657 38.0114C6.95877 37.8136 6.84766 37.5453 6.84766 37.2656C6.84766 36.9859 6.95877 36.7176 7.15657 36.5198C7.35436 36.3221 7.62262 36.2109 7.90234 36.2109Z" fill="#E9E9E9"/>
<path d="M36.7383 21.3891C37.018 21.3891 37.2863 21.5002 37.4841 21.698C37.6819 21.8958 37.793 22.1641 37.793 22.4438C37.793 22.7235 37.6819 22.9918 37.4841 23.1896C37.2863 23.3873 37.018 23.4985 36.7383 23.4985H7.91016C7.63044 23.4985 7.36217 23.3873 7.16438 23.1896C6.96659 22.9918 6.85547 22.7235 6.85547 22.4438C6.85547 22.1641 6.96659 21.8958 7.16438 21.698C7.36217 21.5002 7.63044 21.3891 7.91016 21.3891H36.7383Z" fill="#E9E9E9"/>
<path d="M8.26172 8.78906C7.982 8.78906 7.71373 8.67794 7.51594 8.48015C7.31815 8.28236 7.20703 8.0141 7.20703 7.73438C7.20703 7.45465 7.31815 7.18639 7.51594 6.9886C7.71373 6.79081 7.982 6.67969 8.26172 6.67969H37.0898C37.3696 6.67969 37.6378 6.79081 37.8356 6.9886C38.0334 7.18639 38.1445 7.45465 38.1445 7.73438C38.1445 8.0141 38.0334 8.28236 37.8356 8.48015C37.6378 8.67794 37.3696 8.78906 37.0898 8.78906H8.26172Z" fill="#E9E9E9"/>
<path d="M7.90314 28.8281H25.207C25.4868 28.8281 25.755 28.9392 25.9528 29.137C26.1506 29.3348 26.2617 29.6031 26.2617 29.8828C26.2617 30.1625 26.1506 30.4308 25.9528 30.6286C25.755 30.8264 25.4868 30.9375 25.207 30.9375H7.90314C7.62342 30.9375 7.35515 30.8264 7.15736 30.6286C6.95957 30.4308 6.84845 30.1625 6.84845 29.8828C6.84845 29.6031 6.95957 29.3348 7.15736 29.137C7.35515 28.9392 7.62342 28.8281 7.90314 28.8281Z" fill="#E7A52E"/>
<path d="M25.207 16.0875H7.90314C7.62342 16.0875 7.35515 15.9764 7.15736 15.7786C6.95957 15.5808 6.84845 15.3126 6.84845 15.0328C6.84845 14.7531 6.95957 14.4849 7.15736 14.2871C7.35515 14.0893 7.62342 13.9781 7.90314 13.9781H25.207C25.4868 13.9781 25.755 14.0893 25.9528 14.2871C26.1506 14.4849 26.2617 14.7531 26.2617 15.0328C26.2617 15.3126 26.1506 15.5808 25.9528 15.7786C25.755 15.9764 25.4868 16.0875 25.207 16.0875Z" fill="#E7A52E"/>
</g>
<defs>
<filter id="filter0_d" x="-4" y="0" width="53" height="53" filterUnits="userSpaceOnUse" color-interpolation-filters="sRGB">
<feFlood flood-opacity="0" result="BackgroundImageFix"/>
<feColorMatrix in="SourceAlpha" type="matrix" values="0 0 0 0 0 0 0 0 0 0 0 0 0 0 0 0 0 0 127 0"/>
<feOffset dy="4"/>
<feGaussianBlur stdDeviation="2"/>
<feColorMatrix type="matrix" values="0 0 0 0 0 0 0 0 0 0 0 0 0 0 0 0 0 0 0.25 0"/>
<feBlend mode="normal" in2="BackgroundImageFix" result="effect1_dropShadow"/>
<feBlend mode="normal" in="SourceGraphic" in2="effect1_dropShadow" result="shape"/>
</filter>
</defs>
</svg>
